<?xml version="1.0" encoding="UTF-8" standalone="no"?>
<!-- Created with Inkscape (http://www.inkscape.org/) -->

<svg
   xmlns:dc="http://purl.org/dc/elements/1.1/"
   xmlns:cc="http://creativecommons.org/ns#"
   xmlns:rdf="http://www.w3.org/1999/02/22-rdf-syntax-ns#"
   xmlns:svg="http://www.w3.org/2000/svg"
   xmlns="http://www.w3.org/2000/svg"
   xmlns:sodipodi="http://sodipodi.sourceforge.net/DTD/sodipodi-0.dtd"
   xmlns:inkscape="http://www.inkscape.org/namespaces/inkscape"
   width="244.92419mm"
   height="44.621231mm"
   viewBox="0 0 244.92419 44.621231"
   version="1.1"
   id="svg8"
   inkscape:version="0.92.3 (2405546, 2018-03-11)"
   sodipodi:docname="nameLogo.svg">
  <defs
     id="defs2" />
  <sodipodi:namedview
     id="base"
     pagecolor="#66758b"
     bordercolor="#666666"
     borderopacity="1.0"
     inkscape:pageopacity="0"
     inkscape:pageshadow="2"
     inkscape:zoom="1.4142136"
     inkscape:cx="557.86305"
     inkscape:cy="37.350796"
     inkscape:document-units="mm"
     inkscape:current-layer="text817"
     showgrid="false"
     inkscape:window-width="1920"
     inkscape:window-height="1017"
     inkscape:window-x="-8"
     inkscape:window-y="-8"
     inkscape:window-maximized="1" />
  <metadata
     id="metadata5">
    <rdf:RDF>
      <cc:Work
         rdf:about="">
        <dc:format>image/svg+xml</dc:format>
        <dc:type
           rdf:resource="http://purl.org/dc/dcmitype/StillImage" />
        <dc:title></dc:title>
      </cc:Work>
    </rdf:RDF>
  </metadata>
  <g
     inkscape:label="Layer 1"
     inkscape:groupmode="layer"
     id="layer1"
     transform="translate(-5.1409942,-54.418726)">
    <g
       aria-label="Cloaked Cat"
       style="font-style:normal;font-variant:normal;font-weight:normal;font-stretch:normal;font-size:39.25370789px;line-height:1.25;font-family:Gravity;-inkscape-font-specification:Gravity;letter-spacing:-1.12798011px;word-spacing:-0.00451191px;fill:#f24949;fill-opacity:1;stroke:none;stroke-width:0.45119205"
       id="text817">
      <path
         d="m 51.666916,61.78837 c -7.693726,0 -13.424768,6.005817 -13.424768,14.798647 0,8.596563 5.338504,14.720141 13.267753,14.720141 6.437609,0 10.441487,-4.043132 11.972381,-8.400294 0.157015,-0.43179 -0.03925,-0.706566 -0.510298,-0.706566 l -2.080446,-0.03925 c -0.353284,0 -0.549552,0.157015 -0.706567,0.471045 -1.491641,3.415072 -4.200147,5.574026 -8.36104,5.574026 -6.005817,0 -10.127456,-4.631938 -10.127456,-11.893873 0,-7.261936 4.160893,-11.462083 9.774173,-11.462083 3.650595,0 6.633876,1.844924 8.439547,5.063728 0.157015,0.31403 0.392537,0.471045 0.74582,0.471045 l 2.119701,-0.03925 c 0.43179,0 0.667313,-0.274776 0.510298,-0.706567 -1.884178,-4.945967 -6.24134,-7.850741 -11.619098,-7.850741 z"
         style="letter-spacing:-1.12798011px;fill:#f24949;fill-opacity:1;stroke-width:0.45119205"
         id="path1473"
         inkscape:connector-curvature="0" />
      <path
         d="m 71.704046,62.141653 c 0,-0.392537 -0.235522,-0.628059 -0.628059,-0.628059 H 68.99554 c -0.392537,0 -0.628059,0.235522 -0.628059,0.628059 L 68.24972,90.1688 c 0,0.392537 0.235522,0.62806 0.628059,0.62806 h 2.355223 c 0.392537,0 0.628059,-0.235523 0.628059,-0.62806 z"
         style="letter-spacing:-1.12798011px;fill:#f24949;fill-opacity:1;stroke-width:0.45119205"
         id="path1475"
         inkscape:connector-curvature="0" />
      <path
         d="m 86.244427,69.482096 c -5.770295,0 -10.009695,4.474923 -10.009695,10.991039 0,6.319847 4.121639,10.834023 9.695665,10.834023 5.731042,0 9.970442,-4.710445 9.970442,-11.187307 0,-6.3591 -4.082385,-10.637755 -9.656412,-10.637755 z m -0.353283,3.022536 c 3.729102,0 6.594623,3.061789 6.594623,8.007756 0,4.631938 -2.590745,7.693727 -6.24134,7.693727 -3.689849,0 -6.594623,-3.17955 -6.594623,-8.04701 0,-4.710445 2.590745,-7.654473 6.24134,-7.654473 z"
         style="letter-spacing:-1.12798011px;fill:#f24949;fill-opacity:1;stroke-width:0.45119205"
         id="path1477"
         inkscape:connector-curvature="0" />
      <path
         d="m 107.64195,69.482096 c -4.55343,0 -7.41896,2.315969 -8.321791,5.809549 -0.07851,0.353283 0.157015,0.588806 0.588806,0.588806 h 2.041195 c 0.35328,0 0.5888,-0.157015 0.70656,-0.510298 0.62806,-1.844925 2.27672,-2.944029 4.7497,-2.944029 3.06179,0 4.7497,1.530895 4.7497,3.650595 0,1.530895 -0.94209,2.119701 -2.90477,2.315969 -7.69373,0.74582 -10.951787,2.708506 -10.951787,6.98716 0,3.768356 2.629997,5.770295 6.359097,5.770295 3.25806,0 5.80955,-1.491641 7.22269,-3.650595 h 0.27477 l -0.0392,2.669252 c 0,0.392537 0.23552,0.62806 0.62806,0.62806 h 2.23746 c 0.39254,0 0.62806,-0.235523 0.62806,-0.62806 l -0.11776,-13.581783 c 0,-4.435669 -2.94403,-7.104921 -7.85074,-7.104921 z m 4.47492,10.912531 0.0392,2.74776 c -0.23552,2.276715 -2.86552,5.024474 -6.75164,5.024474 -2.31596,0 -3.7291,-1.05985 -3.7291,-3.022535 0,-2.43373 2.43373,-3.572088 7.26194,-4.12164 1.37388,-0.117761 2.35522,-0.392537 3.02253,-0.706566 z"
         style="letter-spacing:-1.12798011px;fill:#f24949;fill-opacity:1;stroke-width:0.45119205"
         id="path1479"
         inkscape:connector-curvature="0" />
      <path
         d="m 126.55482,80.512388 7.06567,9.891935 c 0.19627,0.274776 0.43179,0.392537 0.74582,0.392537 h 2.59074 c 0.5103,0 0.66732,-0.353284 0.35329,-0.785074 l -8.59657,-11.540591 8.12552,-7.73298 c 0.43179,-0.392537 0.27478,-0.785074 -0.31403,-0.785074 h -2.43373 c -0.31403,0 -0.5103,0.07851 -0.74582,0.31403 l -9.46014,9.067606 -0.0785,-17.193124 c 0,-0.392537 -0.23552,-0.628059 -0.62806,-0.628059 h -2.08044 c -0.39254,0 -0.62806,0.235522 -0.62806,0.628059 L 120.31348,90.1688 c 0,0.392537 0.23552,0.62806 0.62806,0.62806 h 2.35522 c 0.39254,0 0.62806,-0.235523 0.62806,-0.62806 l -0.0392,-7.144174 z"
         style="letter-spacing:-1.12798011px;fill:#f24949;fill-opacity:1;stroke-width:0.45119205"
         id="path1481"
         inkscape:connector-curvature="0" />
      <path
         d="m 149.07503,69.52135 c -5.8488,0 -9.89193,4.435669 -9.89193,10.991038 0,6.437608 3.96462,10.79477 9.65641,10.79477 3.88612,0 6.98716,-1.962685 8.55731,-5.534773 0.15701,-0.431791 -0.0393,-0.74582 -0.5103,-0.74582 h -2.00194 c -0.35328,0 -0.5888,0.117761 -0.74582,0.43179 -1.13836,1.884178 -2.70851,2.787014 -5.02447,2.787014 -3.92537,0 -6.43761,-2.787014 -6.47687,-7.379697 h 14.68089 c 0.43179,0 0.62806,-0.196269 0.66731,-0.62806 0.19627,-5.966563 -2.86552,-10.716262 -8.91059,-10.716262 z m -0.27477,3.022536 c 3.57208,0 5.57402,2.551491 5.69178,5.61328 h -11.65835 c 0.54955,-3.140297 2.47299,-5.61328 5.96657,-5.61328 z"
         style="letter-spacing:-1.12798011px;fill:#f24949;fill-opacity:1;stroke-width:0.45119205"
         id="path1483"
         inkscape:connector-curvature="0" />
      <path
         d="m 179.44263,62.141653 c 0,-0.392537 -0.23552,-0.628059 -0.62806,-0.628059 h -2.1197 c -0.39254,0 -0.62806,0.235522 -0.62806,0.628059 v 9.891934 h -0.19627 c -1.45239,-1.648655 -3.37582,-2.551491 -5.80955,-2.551491 -5.73104,0 -9.69566,4.435669 -9.69566,11.1088 0,6.241339 3.53283,10.716262 8.75357,10.716262 2.63,0 5.18149,-1.138358 6.59463,-3.454326 h 0.23552 V 90.1688 c 0,0.392537 0.23552,0.62806 0.62806,0.62806 h 2.35522 c 0.39254,0 0.62806,-0.235523 0.62806,-0.62806 z m -9.46015,10.362979 c 3.21881,0 5.84881,2.1197 6.24134,6.476862 v 2.629998 c -0.31403,4.278654 -3.02253,6.594623 -6.20208,6.594623 -3.68985,0 -6.24134,-2.904774 -6.24134,-7.889995 0,-4.788953 2.31597,-7.811488 6.20208,-7.811488 z"
         style="letter-spacing:-1.12798011px;fill:#f24949;fill-opacity:1;stroke-width:0.45119205"
         id="path1485"
         inkscape:connector-curvature="0" />
      <path
         d="m 203.57844,61.78837 c -7.69373,0 -13.42477,6.005817 -13.42477,14.798647 0,8.596563 5.33851,14.720141 13.26776,14.720141 6.4376,0 10.44148,-4.043132 11.97238,-8.400294 0.15701,-0.43179 -0.0393,-0.706566 -0.5103,-0.706566 l -2.08045,-0.03925 c -0.35328,0 -0.54955,0.157015 -0.70657,0.471045 -1.49164,3.415072 -4.20014,5.574026 -8.36103,5.574026 -6.00582,0 -10.12746,-4.631938 -10.12746,-11.893873 0,-7.261936 4.16089,-11.462083 9.77417,-11.462083 3.6506,0 6.63388,1.844924 8.43955,5.063728 0.15701,0.31403 0.39254,0.471045 0.74582,0.471045 l 2.1197,-0.03925 c 0.43179,0 0.66731,-0.274776 0.5103,-0.706567 -1.88418,-4.945967 -6.24134,-7.850741 -11.6191,-7.850741 z"
         style="letter-spacing:-1.12798011px;fill:#f24949;fill-opacity:1;stroke-width:0.45119205"
         id="path1487"
         inkscape:connector-curvature="0" />
      <path
         d="m 227.46243,69.482096 c -4.55343,0 -7.41895,2.315969 -8.32178,5.809549 -0.0785,0.353283 0.15701,0.588806 0.5888,0.588806 h 2.04119 c 0.35329,0 0.58881,-0.157015 0.70657,-0.510298 0.62806,-1.844925 2.27672,-2.944029 4.7497,-2.944029 3.06179,0 4.7497,1.530895 4.7497,3.650595 0,1.530895 -0.94209,2.119701 -2.90478,2.315969 -7.69372,0.74582 -10.95178,2.708506 -10.95178,6.98716 0,3.768356 2.63,5.770295 6.3591,5.770295 3.25806,0 5.80955,-1.491641 7.22268,-3.650595 h 0.27478 l -0.0393,2.669252 c 0,0.392537 0.23553,0.62806 0.62806,0.62806 h 2.23746 c 0.39254,0 0.62806,-0.235523 0.62806,-0.62806 l -0.11776,-13.581783 c 0,-4.435669 -2.94403,-7.104921 -7.85074,-7.104921 z m 4.47492,10.912531 0.0393,2.74776 c -0.23552,2.276715 -2.86552,5.024474 -6.75164,5.024474 -2.31597,0 -3.7291,-1.05985 -3.7291,-3.022535 0,-2.43373 2.43373,-3.572088 7.26193,-4.12164 1.37388,-0.117761 2.35523,-0.392537 3.02254,-0.706566 z"
         style="letter-spacing:-1.12798011px;fill:#f24949;fill-opacity:1;stroke-width:0.45119205"
         id="path1489"
         inkscape:connector-curvature="0" />
      <path
         d="m 250.06516,70.5812 c 0,-0.392537 -0.23552,-0.628059 -0.62806,-0.628059 h -3.84686 l -0.0393,-7.497458 c 0,-0.392537 -0.23552,-0.62806 -0.62806,-0.62806 h -2.08044 c -0.39254,0 -0.62806,0.235523 -0.62806,0.62806 l -0.0393,7.497458 h -3.14029 c -0.39254,0 -0.62806,0.235522 -0.62806,0.628059 v 1.648656 c 0,0.392537 0.23552,0.628059 0.62806,0.628059 h 3.14029 l -0.0784,17.310885 c 0,0.392537 0.23552,0.62806 0.62806,0.62806 h 2.35522 c 0.39254,0 0.62806,-0.235523 0.62806,-0.62806 l -0.0785,-17.310885 h 3.80761 c 0.39254,0 0.62806,-0.235522 0.62806,-0.628059 z"
         style="letter-spacing:-1.12798011px;fill:#f24949;fill-opacity:1;stroke-width:0.45119205"
         id="path1491"
         inkscape:connector-curvature="0" />
    </g>
    <g
       id="g1471"
       transform="matrix(0.17501617,0,0,0.17501617,13.50251,50.218038)">
      <path
         style="fill:#4a4d6d;fill-opacity:1;fill-rule:evenodd;stroke:#000000;stroke-width:0;stroke-linecap:square;stroke-linejoin:bevel;stroke-opacity:0"
         inkscape:connector-curvature="0"
         id="shape1"
         d="m 52.11406,244.23258 c -25.255829,11.14043 -70.016529,13.72241 -73.678961,0.96857 15.1932251,-18.26255 45.242798,-13.64653 73.678961,-0.96857 z" />
      <path
         style="fill:#4a4d6d;fill-opacity:1;fill-rule:evenodd;stroke:#000000;stroke-width:1.60488284;stroke-linecap:square;stroke-linejoin:bevel;stroke-opacity:0"
         inkscape:connector-curvature="0"
         id="shape3"
         d="m 18.237405,229.55464 c -2.522918,16.33771 1.771124,45.74986 -0.386373,46.80262 -0.839888,0.32632 -2.285532,0.5441 -3.262104,0.0383 C 5.6173651,268.74383 0.37109811,246.61905 0.74104111,231.41954 0.38810311,231.58462 6.2202231,230.96298 18.237405,229.5546 Z" />
      <path
         style="fill:#4a4d6d;fill-opacity:1;fill-rule:evenodd;stroke:#000000;stroke-width:0;stroke-linecap:square;stroke-linejoin:bevel;stroke-opacity:0"
         inkscape:connector-curvature="0"
         id="shape2"
         d="m 70.615464,243.38203 c -0.56987,11.23396 -3.92352,25.96658 -15.08668,35.06404 -1.78732,0.82785 -3.22699,0.5412 -4.212191,-0.0961 2.795881,-14.53132 3.810661,-27.47361 -0.970196,-40.30592 0.690544,-1.77802 7.446897,0.001 20.269067,5.33795 z" />
      <path
         style="fill:#4a4d6d;fill-opacity:1;fill-rule:evenodd;stroke:#000000;stroke-width:1.60488284;stroke-linecap:square;stroke-linejoin:bevel;stroke-opacity:0"
         inkscape:connector-curvature="0"
         id="shape4"
         d="m 36.973832,239.60585 c -0.688999,-8.56631 -8.083942,-4.13781 -10.72098,-3.42617 1.187397,17.52787 17.407001,28.65396 23.734384,25.55397 0.818724,-0.51715 1.060524,-1.54919 0.561583,-2.51417 -6.197999,-4.78039 -12.885962,-11.04731 -13.574987,-19.61363 z" />
      <path
         style="opacity:1;fill:#fdfdff;fill-opacity:1;fill-rule:evenodd;stroke:#000000;stroke-width:0;stroke-linecap:round;stroke-linejoin:round;stroke-opacity:0"
         inkscape:connector-curvature="0"
         id="shape11"
         d="m 79.845924,76.69982 c 0.34372,-14.132552 1.03359,-39.200198 -6.36804,-52.382767 -0.90676,-0.510722 -1.34342,-0.327847 -2.03218,0.03175 -5.97886,9.219793 -17.98405,17.177493 -29.59181,21.197077 -2.737662,0.601007 -9.585608,-1.678439 -14.2391,-1.458637 -4.72482,0.223168 -10.074875,1.993732 -11.885718,1.748921 -12.7527999,-2.217569 -25.784715,-8.703726 -34.53253,-17.805618 -0.329335,-0.36228 -1.193163,-0.411206 -1.661367,0.101019 -4.922696,18.814843 -5.555938,40.968689 4.156157,55.472594 -10.729377,25.855781 -12.109131,47.477781 19.3874741,56.926311 -4.357034,38.1202 -27.1854791,54.73787 -24.6437101,104.67068 14.1729431,-15.77556 44.522414,-13.21644 68.811201,-1.73417 70.520329,30.20323 98.810179,-4.45355 80.543709,-43.90781 -46.951956,-2.26979 -63.800996,-26.48904 -70.920436,-61.60298 25.89078,-0.91122 33.00865,-25.46258 32.20131,-36.22176 -3.70305,-7.006872 -6.77796,-15.351818 -9.22496,-25.03461 z" />
      <path
         style="fill:#4a4d6d;fill-opacity:1;fill-rule:evenodd;stroke:#000000;stroke-width:0;stroke-linecap:square;stroke-linejoin:bevel;stroke-opacity:0"
         inkscape:connector-curvature="0"
         id="shape0"
         d="m 25.469195,139.38576 c 5.123112,-7.79993 18.145678,-4.73831 29.709709,-2.89591 2.11471,0.25381 3.5306,-0.10652 4.75205,-0.78607 19.9566,-10.23411 -4.99579,-41.340268 -10.975067,-61.412263 -5.227243,-11.885634 -43.4993279,-15.322326 -54.2889829,1.020085 -10.4032321,19.731709 -27.3381301,47.193758 1.790372,60.241568 2.540534,0.63059 2.83928301,1.23441 5.778521,0.79374 9.7844949,-1.81775 13.0548909,-1.48488 23.2333979,3.03885 z" />
      <path
         style="fill:#fdfdff;fill-opacity:1;fill-rule:evenodd;stroke:#b5d9df;stroke-width:0;stroke-linecap:square;stroke-linejoin:bevel"
         inkscape:connector-curvature="0"
         id="shape5"
         d="M 49.273335,79.943056 C 28.188205,73.071885 23.510974,88.344217 26.984893,102.42216 43.371779,106.89867 50.731324,97.459349 49.273335,79.943056 Z" />
      <path
         style="fill:#fdfdff;fill-opacity:1;fill-rule:evenodd;stroke:#000000;stroke-width:0;stroke-linecap:square;stroke-linejoin:bevel;stroke-opacity:0"
         inkscape:connector-curvature="0"
         id="shape6"
         d="M -4.5248519,77.960774 C 11.08807,76.882523 17.614071,91.120871 9.2149421,102.56671 -3.7621959,105.13656 -12.011185,90.10253 -4.5248519,77.960774 Z" />
      <path
         style="fill:#f24949;fill-opacity:1;fill-rule:evenodd;stroke:#000000;stroke-width:1.60488284;stroke-linecap:round;stroke-linejoin:round;stroke-opacity:0"
         inkscape:connector-curvature="0"
         id="shape7"
         d="m 22.236307,106.06898 c -3.045243,-1.66948 -6.158984,-2.28165 -9.743577,0.31431 1.072239,1.52701 3.600376,3.43441 5.522846,3.95132 0.926775,-0.0157 3.183107,-1.90852 4.220731,-4.26563 z" />
      <path
         style="fill:#fdfdff;fill-opacity:1;fill-rule:evenodd;stroke:#212428;stroke-width:0;stroke-linecap:square;stroke-linejoin:bevel"
         inkscape:connector-curvature="0"
         id="shape8"
         d="M 7.1701121,109.43384 C -0.48540289,106.75126 -39.546131,99.188591 -47.161189,99.62685" />
      <path
         style="fill:#fdfdff;fill-opacity:1;fill-rule:evenodd;stroke:#212428;stroke-width:0;stroke-linecap:square;stroke-linejoin:bevel"
         inkscape:connector-curvature="0"
         id="shape9"
         d="m 7.0616091,113.34162 c -8.202287,-0.96115 -45.4618701,-3.61229 -54.8372841,-1.19406" />
      <path
         style="fill:#fdfdff;fill-opacity:1;fill-rule:evenodd;stroke:#212428;stroke-width:0;stroke-linecap:square;stroke-linejoin:bevel"
         inkscape:connector-curvature="0"
         id="shape10"
         d="m 7.9496091,116.62826 c -9.035936,1.1207 -45.6445621,4.51195 -52.8519121,9.67125" />
      <path
         style="fill:#fdfdff;fill-opacity:1;fill-rule:evenodd;stroke:#212428;stroke-width:0;stroke-linecap:square;stroke-linejoin:bevel"
         inkscape:connector-curvature="0"
         id="path4026"
         d="m 39.956736,109.41322 c 5.745501,-1.73721 48.885848,-10.035269 56.968878,-9.23673" />
      <path
         style="fill:#fdfdff;fill-opacity:1;fill-rule:evenodd;stroke:#212428;stroke-width:0;stroke-linecap:square;stroke-linejoin:bevel"
         inkscape:connector-curvature="0"
         id="shape12"
         d="m 41.580225,113.77582 c 7.203413,-1.83119 51.012279,-4.9601 55.156309,-3.70629" />
      <path
         style="fill:#fdfdff;fill-opacity:1;fill-rule:evenodd;stroke:#212428;stroke-width:0;stroke-linecap:square;stroke-linejoin:bevel"
         inkscape:connector-curvature="0"
         id="shape13"
         d="m 43.425559,117.24939 c 5.381749,-0.39292 44.833515,0.35571 48.995955,3.88782" />
      <ellipse
         style="fill:#4a4d6d;fill-opacity:1;fill-rule:evenodd;stroke:#b5d9df;stroke-width:0;stroke-linecap:square;stroke-linejoin:bevel"
         id="shape14"
         rx="9.4631395"
         ry="12.514287"
         cx="37.78043"
         cy="88.925301" />
      <ellipse
         style="fill:#4a4d6d;fill-opacity:1;fill-rule:evenodd;stroke:#000000;stroke-width:0;stroke-linecap:square;stroke-linejoin:bevel"
         id="shape15"
         rx="7.6539111"
         ry="12.797993"
         cx="5.0878801"
         cy="88.598328" />
    </g>
  </g>
</svg>
